<svg width="51" height="62" viewBox="0 0 51 62" fill="none" xmlns="http://www.w3.org/2000/svg">
<path d="M22.9688 54.15C22.9688 53.9144 22.827 53.7018 22.6096 53.6113C20.0682 52.5519 18.2812 50.0451 18.2812 47.1199V24.6199C18.2812 21.6946 20.0682 19.1878 22.6096 18.1285C22.827 18.0379 22.9688 17.8252 22.9688 17.5898V17.5886H18.2812C14.398 17.5886 11.25 20.7366 11.25 24.6199V47.1199C11.25 51.0031 14.398 54.1511 18.2812 54.1511H22.9688V54.15Z" fill="white" fill-opacity="0.1"/>
<path d="M23.3711 42.4991L36.6295 29.2407" stroke="white" stroke-width="3" stroke-miterlimit="10" stroke-linecap="round" stroke-linejoin="round"/>
<path d="M30 22.2761L44.0625 3.52612" stroke="white" stroke-width="3" stroke-miterlimit="10" stroke-linecap="round" stroke-linejoin="round"/>
<path d="M15.9375 3.52612L25.3895 14.1307" stroke="white" stroke-width="3" stroke-miterlimit="10" stroke-linecap="round" stroke-linejoin="round"/>
<path d="M48.75 31.1824V24.6199C48.75 20.7366 45.602 17.5886 41.7188 17.5886H38.0747C36.4508 14.7983 33.4612 12.9011 30 12.9011C26.5388 12.9011 23.5493 14.7983 21.9253 17.5886H18.2812C14.398 17.5886 11.25 20.7366 11.25 24.6199V47.1199C11.25 51.0031 14.398 54.1511 18.2812 54.1511H21.9253C23.5492 56.9415 26.5388 58.8386 30 58.8386C33.4612 58.8386 36.4507 56.9415 38.0747 54.1511H41.7188C45.602 54.1511 48.75 51.0031 48.75 47.1199V40.5574" stroke="white" stroke-width="3" stroke-miterlimit="10" stroke-linecap="round" stroke-linejoin="round"/>
</svg>
