<svg width="60" height="62" viewBox="0 0 60 62" fill="none" xmlns="http://www.w3.org/2000/svg">
<path d="M8.75573 37.9302L35.3054 11.3805C37.136 9.5499 40.104 9.5499 41.9345 11.3805L36.8955 6.34144C35.0649 4.51086 32.0969 4.51086 30.2663 6.34144L3.71668 32.8912C1.88611 34.7218 1.88611 37.6898 3.71668 39.5202L8.75573 44.5593C6.92515 42.7287 6.92515 39.7608 8.75573 37.9302Z" fill="white" fill-opacity="0.1"/>
<path d="M50.1537 19.5994C51.9843 21.43 51.9843 24.398 50.1537 26.2286L23.6039 52.7782C21.7733 54.6088 18.8053 54.6088 16.9748 52.7782L3.71668 39.52C1.88611 37.6895 1.88611 34.7215 3.71668 32.8909L30.2663 6.34119C32.0969 4.51061 35.0649 4.51061 36.8955 6.34119L43.5247 12.9704L52.9689 3.52612" stroke="white" stroke-width="3" stroke-miterlimit="10" stroke-linecap="round" stroke-linejoin="round"/>
<path d="M18.9629 32.2282C18.7626 33.6379 19.2046 35.1212 20.2889 36.2056C22.1195 38.0361 25.0875 38.0361 26.9181 36.2056C28.7487 34.375 28.7487 31.407 26.9181 29.5764C25.0875 27.7458 25.0875 24.7778 26.9181 22.9472C28.7487 21.1166 31.7167 21.1166 33.5473 22.9472C34.6316 24.0315 35.0737 25.5149 34.8734 26.9245" stroke="white" stroke-width="3" stroke-miterlimit="10" stroke-linecap="round" stroke-linejoin="round"/>
<path d="M16.9746 39.5201L20.2891 36.2056" stroke="white" stroke-width="3" stroke-miterlimit="10" stroke-linecap="round" stroke-linejoin="round"/>
<path d="M33.5469 22.9474L36.8614 19.6328" stroke="white" stroke-width="3" stroke-miterlimit="10" stroke-linecap="round" stroke-linejoin="round"/>
<path d="M43.5938 58.8386L57.6562 44.7761" stroke="white" stroke-width="3" stroke-miterlimit="10" stroke-linecap="round" stroke-linejoin="round"/>
</svg>
