<svg width="61" height="62" viewBox="0 0 61 62" fill="none" xmlns="http://www.w3.org/2000/svg">
<path d="M24.0465 5.6355C20.3452 5.6355 16.9904 7.81319 15.4836 11.1938L9.38656 24.873C5.73148 25.1241 2.84375 28.1667 2.84375 31.8855V37.2761C2.84375 40.5121 5.46711 43.1355 8.70312 43.1355H10.3092C10.3179 42.6846 10.3293 42.2338 10.3438 41.7829C9.9623 41.0054 9.74727 40.1314 9.74727 39.2069L9.64062 35.0496C9.64062 31.975 10.2662 30.7918 12.5483 30.3321C13.6331 30.1135 14.5413 29.3744 14.9858 28.361L22.5148 11.1938C24.0215 7.81319 27.3764 5.6355 31.0777 5.6355H24.0465Z" fill="white" fill-opacity="0.1"/>
<path d="M8.70312 43.1355C5.46711 43.1355 2.84375 40.5121 2.84375 37.2761V31.8855C2.84375 28.1667 5.73148 25.1241 9.38656 24.873L15.4836 11.1938C16.9903 7.81319 20.3451 5.6355 24.0465 5.6355H34.7217C38.2441 5.6355 41.4692 7.60987 43.0711 10.747L46.0859 16.6511M58.1562 31.8855C58.1562 28.0023 55.0082 24.8543 51.125 24.8543H19.1328M28.7422 16.6511V5.75269M32.9609 43.1355H27.6873M21.242 38.448C18.6532 38.448 16.5545 40.5467 16.5545 43.1355C16.5545 45.7243 18.6532 47.823 21.242 47.823C23.8307 47.823 25.9295 45.7243 25.9295 43.1355C25.9295 40.5467 23.8309 38.448 21.242 38.448Z" stroke="white" stroke-width="3" stroke-miterlimit="10" stroke-linecap="round" stroke-linejoin="round"/>
<path d="M58.1562 42.7839C58.1562 47.2821 54.5097 50.9871 50.0117 50.9871C45.5136 50.9871 41.8671 47.3407 41.8671 42.8425C41.8671 38.3444 45.5722 34.698 50.0703 34.698M44.0351 49.2879L36.5938 56.7293" stroke="white" stroke-width="3" stroke-miterlimit="10" stroke-linecap="round" stroke-linejoin="round"/>
</svg>
