<svg width="19" height="19" viewBox="0 0 19 19" fill="none" xmlns="http://www.w3.org/2000/svg">
<g clip-path="url(#clip0_2052_122)">
<path d="M10.9501 3.71498C10.9501 3.55498 10.9001 3.42498 10.8001 3.32498C10.7001 3.22498 10.5701 3.17498 10.4101 3.17498H4.77006C4.61006 3.17498 4.48006 3.22498 4.38006 3.32498C4.28006 3.42498 4.23006 3.55498 4.23006 3.71498V8.21498C4.23006 8.37498 4.28006 8.51498 4.38006 8.63498C4.48006 8.75498 4.61006 8.81498 4.77006 8.81498H10.4101C10.5701 8.81498 10.7001 8.75498 10.8001 8.63498C10.9001 8.51498 10.9501 8.37498 10.9501 8.21498V3.71498ZM9.81006 7.67498H5.31006V4.31498H9.81006V7.67498ZM17.4301 4.31498L15.1501 3.23498C15.0301 3.15498 14.8901 3.13498 14.7301 3.17498C14.5701 3.21498 14.4601 3.30498 14.4001 3.44498C14.3401 3.58498 14.3301 3.73498 14.3701 3.89498C14.4101 4.05498 14.5101 4.15498 14.6701 4.19498L15.5101 4.67498L15.4501 4.85498C15.4501 5.21498 15.5601 5.53498 15.7801 5.81498C16.0001 6.09498 16.2701 6.29498 16.5901 6.41498V13.255C16.5901 13.415 16.5301 13.555 16.4101 13.675C16.2901 13.795 16.1601 13.855 16.0201 13.855C15.8801 13.855 15.7501 13.795 15.6301 13.675C15.5101 13.555 15.4501 13.415 15.4501 13.255V8.75498C15.4501 8.11498 15.2201 7.53498 14.7601 7.01498C14.3001 6.49498 13.7901 6.17498 13.2301 6.05498V2.57498C13.2301 1.97498 13.0101 1.45498 12.5701 1.01498C12.1301 0.574982 11.6101 0.35498 11.0101 0.35498H4.23006C3.63006 0.35498 3.10006 0.574982 2.64006 1.01498C2.18006 1.45498 1.95006 1.97498 1.95006 2.57498V15.175L1.17006 15.595C0.930059 15.715 0.810059 15.875 0.810059 16.075V17.755C0.810059 17.915 0.870059 18.055 0.990059 18.175C1.11006 18.295 1.25006 18.355 1.41006 18.355H13.7701C13.9301 18.355 14.0601 18.295 14.1601 18.175C14.2601 18.055 14.3101 17.915 14.3101 17.755V16.075C14.3101 15.875 14.2101 15.715 14.0101 15.595L13.2301 15.175V7.19498C13.5101 7.31498 13.7601 7.52498 13.9801 7.82498C14.2001 8.12498 14.3101 8.43498 14.3101 8.75498V13.255C14.3101 13.735 14.4801 14.145 14.8201 14.485C15.1601 14.825 15.5601 14.995 16.0201 14.995C16.4801 14.995 16.8801 14.825 17.2201 14.485C17.5601 14.145 17.7301 13.735 17.7301 13.255V4.85498C17.7301 4.61498 17.6301 4.43498 17.4301 4.31498ZM13.2301 17.215H1.95006V16.435L2.79006 16.015C2.99006 15.935 3.09006 15.775 3.09006 15.535V2.57498C3.09006 2.29498 3.20006 2.04498 3.42006 1.82498C3.64006 1.60498 3.91006 1.49498 4.23006 1.49498H11.0101C11.2901 1.49498 11.5401 1.60498 11.7601 1.82498C11.9801 2.04498 12.0901 2.29498 12.0901 2.57498V15.535C12.0901 15.775 12.1901 15.935 12.3901 16.015L13.2301 16.435V17.215Z" fill="#050B20"/>
</g>
<defs>
<clipPath id="clip0_2052_122">
<rect width="18" height="18" fill="white" transform="matrix(1 0 0 -1 0.27002 18.355)"/>
</clipPath>
</defs>
</svg>
