<svg width="1440" height="382" viewBox="0 0 1440 382" fill="none" xmlns="http://www.w3.org/2000/svg">
<path d="M922.183 382.334H860.899L864.447 379.081C971.723 280.716 1177.16 92.3445 1195.88 -75.6322C1214.81 -245.48 927.342 -268.467 728.647 -271.054C529.952 -273.641 68.7457 -195.645 -151.548 -158.337C185.093 -249.458 847.956 -439.075 1270.52 -300.155C1591.42 -183.59 1451.99 110.742 1344.15 246.469L1437.02 383.683H1170.12C1302.31 240.95 1420.01 83.5973 1421.44 -67.4916C1422.86 -218.581 1228.13 -301.271 948.909 -301.639C1060.48 -288.317 1253.65 -228.923 1243.7 -76.598C1233.74 75.7267 1022.32 302.561 922.183 382.334Z" fill="#D9D9D9" fill-opacity="0.1"/>
<path d="M1205.02 246.256L1130.48 248.764C1122.45 259.659 1041.6 339.551 1002.18 378.135L1107.18 374.552C1129.54 348.749 1181.72 278.27 1205.02 246.256Z" fill="#D9D9D9" fill-opacity="0.1"/>
<path d="M1227.62 213.713L1160.95 216.428L1230.64 123.51L1281.32 122.303C1274.56 135.336 1242.71 188.673 1227.62 213.713Z" fill="#D9D9D9" fill-opacity="0.1"/>
<path d="M1339.55 -55.3873L1315.11 -53.5773C1300.39 12.0688 1268.15 70.1124 1253.87 90.9285L1297.31 88.2133C1331.1 9.2933 1339.55 -40.4038 1339.55 -55.3873Z" fill="#D9D9D9" fill-opacity="0.1"/>
<path d="M1338.94 -86.4606H1318.73C1320.42 -174.31 1256.28 -222.016 1224 -234.888C1314.02 -203.996 1338.14 -123.065 1338.94 -86.4606Z" fill="#D9D9D9" fill-opacity="0.1"/>
</svg>
