<svg width="19" height="19" viewBox="0 0 19 19" fill="none" xmlns="http://www.w3.org/2000/svg">
<g clip-path="url(#clip0_2052_119)">
<path d="M18.3799 10.9749C18.3799 13.0149 17.7799 14.8349 16.5799 16.4349C16.4599 16.5949 16.2999 16.6849 16.0999 16.7049C15.8999 16.7249 15.7199 16.6749 15.5599 16.5549C15.3999 16.4349 15.3099 16.2849 15.2899 16.1049C15.2699 15.9249 15.3199 15.7549 15.4399 15.5949C16.4799 14.2349 16.9999 12.6949 16.9999 10.9749C16.9999 9.61494 16.6599 8.35494 15.9799 7.19494C15.2999 6.03494 14.3699 5.11494 13.1899 4.43494C12.0099 3.75494 10.7399 3.41494 9.37988 3.41494C8.01988 3.41494 6.74988 3.75494 5.56988 4.43494C4.38988 5.11494 3.45988 6.03494 2.77988 7.19494C2.09988 8.35494 1.75988 9.61494 1.75988 10.9749C1.75988 12.6949 2.27988 14.2349 3.31988 15.5949C3.43988 15.7549 3.48988 15.9249 3.46988 16.1049C3.44988 16.2849 3.35988 16.4349 3.19988 16.5549C3.03988 16.6749 2.85988 16.7249 2.65988 16.7049C2.45988 16.6849 2.29988 16.5949 2.17988 16.4349C0.979883 14.8349 0.379883 13.0149 0.379883 10.9749C0.379883 9.37494 0.779883 7.88494 1.57988 6.50494C2.37988 5.12494 3.46988 4.03494 4.84988 3.23494C6.22988 2.43494 7.73988 2.03494 9.37988 2.03494C11.0199 2.03494 12.5299 2.43494 13.9099 3.23494C15.2899 4.03494 16.3799 5.12494 17.1799 6.50494C17.9799 7.88494 18.3799 9.37494 18.3799 10.9749ZM13.8199 6.77494C13.9799 6.89494 14.0599 7.05494 14.0599 7.25494C14.0599 7.45494 13.9799 7.61494 13.8199 7.73494L11.5399 10.0749C11.7399 10.4349 11.8399 10.8149 11.8399 11.2149C11.8399 11.8949 11.5999 12.4749 11.1199 12.9549C10.6399 13.4349 10.0599 13.6749 9.37988 13.6749C8.69988 13.6749 8.11988 13.4349 7.63988 12.9549C7.15988 12.4749 6.91988 11.8949 6.91988 11.2149C6.91988 10.5349 7.15988 9.95494 7.63988 9.47494C8.11988 8.99494 8.69988 8.75494 9.37988 8.75494C9.77988 8.75494 10.1599 8.85494 10.5199 9.05494L12.8599 6.77494C12.9799 6.61494 13.1399 6.53494 13.3399 6.53494C13.5399 6.53494 13.6999 6.61494 13.8199 6.77494ZM10.4599 11.2149C10.4599 10.9349 10.3499 10.6949 10.1299 10.4949C9.90988 10.2949 9.65988 10.1949 9.37988 10.1949C9.09988 10.1949 8.84988 10.2949 8.62988 10.4949C8.40988 10.6949 8.29988 10.9349 8.29988 11.2149C8.29988 11.4949 8.40988 11.7449 8.62988 11.9649C8.84988 12.1849 9.09988 12.2949 9.37988 12.2949C9.65988 12.2949 9.90988 12.1849 10.1299 11.9649C10.3499 11.7449 10.4599 11.4949 10.4599 11.2149Z" fill="#050B20"/>
</g>
<defs>
<clipPath id="clip0_2052_119">
<rect width="18" height="18" fill="white" transform="matrix(1 0 0 -1 0.379883 18.355)"/>
</clipPath>
</defs>
</svg>
