<svg width="61" height="61" viewBox="0 0 61 61" fill="none" xmlns="http://www.w3.org/2000/svg">
<g clip-path="url(#clip0_5_516)">
<path d="M24.0465 5.14551C20.3452 5.14551 16.9904 7.3232 15.4836 10.7038L9.38656 24.383C5.73148 24.6341 2.84375 27.6767 2.84375 31.3955V36.7861C2.84375 40.0221 5.46711 42.6455 8.70312 42.6455H10.3092C10.3179 42.1946 10.3293 41.7438 10.3438 41.2929C9.9623 40.5154 9.74727 39.6414 9.74727 38.7169L9.64062 34.5596C9.64062 31.485 10.2662 30.3018 12.5483 29.8421C13.6331 29.6235 14.5413 28.8844 14.9858 27.871L22.5148 10.7038C24.0215 7.3232 27.3764 5.14551 31.0777 5.14551H24.0465Z" fill="white" fill-opacity="0.1"/>
<path d="M8.70312 42.6455C5.46711 42.6455 2.84375 40.0221 2.84375 36.7861V31.3955C2.84375 27.6767 5.73148 24.6341 9.38656 24.383L15.4836 10.7038C16.9903 7.3232 20.3451 5.14551 24.0465 5.14551H34.7217C38.2441 5.14551 41.4692 7.11988 43.0711 10.257L46.0859 16.1611M58.1562 31.3955C58.1562 27.5123 55.0082 24.3643 51.125 24.3643H19.1328M28.7422 16.1611V5.2627M32.9609 42.6455H27.6873M21.242 37.958C18.6532 37.958 16.5545 40.0567 16.5545 42.6455C16.5545 45.2343 18.6532 47.333 21.242 47.333C23.8307 47.333 25.9295 45.2343 25.9295 42.6455C25.9295 40.0567 23.8309 37.958 21.242 37.958Z" stroke="white" stroke-width="3" stroke-miterlimit="10" stroke-linecap="round" stroke-linejoin="round"/>
<path d="M58.1562 42.2939C58.1562 46.7921 54.5097 50.4971 50.0117 50.4971C45.5136 50.4971 41.8671 46.8507 41.8671 42.3525C41.8671 37.8544 45.5722 34.208 50.0703 34.208M44.0351 48.7979L36.5938 56.2393" stroke="#FF0000" stroke-width="3" stroke-miterlimit="10" stroke-linecap="round" stroke-linejoin="round"/>
</g>
<defs>
<clipPath id="clip0_5_516">
<rect width="60" height="61" fill="white" transform="translate(0.5)"/>
</clipPath>
</defs>
</svg>
