<svg width="19" height="19" viewBox="0 0 19 19" fill="none" xmlns="http://www.w3.org/2000/svg">
<path d="M3.8901 2.03505C3.3301 2.03505 2.8501 2.23505 2.4501 2.63505C2.0501 3.03505 1.8501 3.52505 1.8501 4.10505C1.8501 4.68505 2.0501 5.17505 2.4501 5.57505C2.8501 5.97505 3.3301 6.17505 3.8901 6.17505C4.4501 6.17505 4.9301 5.97505 5.3301 5.57505C5.7301 5.17505 5.9301 4.68505 5.9301 4.10505C5.9301 3.52505 5.7301 3.03505 5.3301 2.63505C4.9301 2.23505 4.4501 2.03505 3.8901 2.03505ZM3.8901 3.17505C4.1301 3.17505 4.3501 3.26505 4.5501 3.44505C4.7501 3.62505 4.8501 3.84505 4.8501 4.10505C4.8501 4.36505 4.7501 4.58505 4.5501 4.76505C4.3501 4.94505 4.1301 5.03505 3.8901 5.03505C3.6501 5.03505 3.4301 4.94505 3.2301 4.76505C3.0301 4.58505 2.9301 4.36505 2.9301 4.10505C2.9301 3.84505 3.0301 3.62505 3.2301 3.44505C3.4301 3.26505 3.6501 3.17505 3.8901 3.17505ZM3.8901 12.535C3.3301 12.535 2.8501 12.735 2.4501 13.135C2.0501 13.535 1.8501 14.025 1.8501 14.605C1.8501 15.185 2.0501 15.675 2.4501 16.075C2.8501 16.475 3.3301 16.675 3.8901 16.675C4.4501 16.675 4.9301 16.475 5.3301 16.075C5.7301 15.675 5.9301 15.185 5.9301 14.605C5.9301 14.025 5.7301 13.535 5.3301 13.135C4.9301 12.735 4.4501 12.535 3.8901 12.535ZM3.8901 13.675C4.1301 13.675 4.3501 13.765 4.5501 13.945C4.7501 14.125 4.8501 14.345 4.8501 14.605C4.8501 14.865 4.7501 15.085 4.5501 15.265C4.3501 15.445 4.1301 15.535 3.8901 15.535C3.6501 15.535 3.4301 15.445 3.2301 15.265C3.0301 15.085 2.9301 14.865 2.9301 14.605C2.9301 14.345 3.0301 14.125 3.2301 13.945C3.4301 13.765 3.6501 13.675 3.8901 13.675ZM9.8901 2.03505C9.3301 2.03505 8.8501 2.23505 8.4501 2.63505C8.0501 3.03505 7.8501 3.52505 7.8501 4.10505C7.8501 4.68505 8.0501 5.17505 8.4501 5.57505C8.8501 5.97505 9.3301 6.17505 9.8901 6.17505C10.4501 6.17505 10.9301 5.97505 11.3301 5.57505C11.7301 5.17505 11.9301 4.68505 11.9301 4.10505C11.9301 3.52505 11.7301 3.03505 11.3301 2.63505C10.9301 2.23505 10.4501 2.03505 9.8901 2.03505ZM9.8901 3.17505C10.1301 3.17505 10.3501 3.26505 10.5501 3.44505C10.7501 3.62505 10.8501 3.84505 10.8501 4.10505C10.8501 4.36505 10.7501 4.58505 10.5501 4.76505C10.3501 4.94505 10.1301 5.03505 9.8901 5.03505C9.6501 5.03505 9.4301 4.94505 9.2301 4.76505C9.0301 4.58505 8.9301 4.36505 8.9301 4.10505C8.9301 3.84505 9.0301 3.62505 9.2301 3.44505C9.4301 3.26505 9.6501 3.17505 9.8901 3.17505ZM9.8901 12.535C9.3301 12.535 8.8501 12.735 8.4501 13.135C8.0501 13.535 7.8501 14.025 7.8501 14.605C7.8501 15.185 8.0501 15.675 8.4501 16.075C8.8501 16.475 9.3301 16.675 9.8901 16.675C10.4501 16.675 10.9301 16.475 11.3301 16.075C11.7301 15.675 11.9301 15.185 11.9301 14.605C11.9301 14.025 11.7301 13.535 11.3301 13.135C10.9301 12.735 10.4501 12.535 9.8901 12.535ZM9.8901 13.675C10.1301 13.675 10.3501 13.765 10.5501 13.945C10.7501 14.125 10.8501 14.345 10.8501 14.605C10.8501 14.865 10.7501 15.085 10.5501 15.265C10.3501 15.445 10.1301 15.535 9.8901 15.535C9.6501 15.535 9.4301 15.445 9.2301 15.265C9.0301 15.085 8.9301 14.865 8.9301 14.605C8.9301 14.345 9.0301 14.125 9.2301 13.945C9.4301 13.765 9.6501 13.675 9.8901 13.675ZM15.8901 2.03505C15.3301 2.03505 14.8501 2.23505 14.4501 2.63505C14.0501 3.03505 13.8501 3.52505 13.8501 4.10505C13.8501 4.68505 14.0501 5.17505 14.4501 5.57505C14.8501 5.97505 15.3301 6.17505 15.8901 6.17505C16.4501 6.17505 16.9301 5.97505 17.3301 5.57505C17.7301 5.17505 17.9301 4.68505 17.9301 4.10505C17.9301 3.52505 17.7301 3.03505 17.3301 2.63505C16.9301 2.23505 16.4501 2.03505 15.8901 2.03505ZM15.8901 3.17505C16.1301 3.17505 16.3501 3.26505 16.5501 3.44505C16.7501 3.62505 16.8501 3.84505 16.8501 4.10505C16.8501 4.36505 16.7501 4.58505 16.5501 4.76505C16.3501 4.94505 16.1301 5.03505 15.8901 5.03505C15.6501 5.03505 15.4301 4.94505 15.2301 4.76505C15.0301 4.58505 14.9301 4.36505 14.9301 4.10505C14.9301 3.84505 15.0301 3.62505 15.2301 3.44505C15.4301 3.26505 15.6501 3.17505 15.8901 3.17505ZM15.8901 12.535C15.3301 12.535 14.8501 12.735 14.4501 13.135C14.0501 13.535 13.8501 14.025 13.8501 14.605C13.8501 15.185 14.0501 15.675 14.4501 16.075C14.8501 16.475 15.3301 16.675 15.8901 16.675C16.4501 16.675 16.9301 16.475 17.3301 16.075C17.7301 15.675 17.9301 15.185 17.9301 14.605C17.9301 14.025 17.7301 13.535 17.3301 13.135C16.9301 12.735 16.4501 12.535 15.8901 12.535ZM15.8901 13.675C16.1301 13.675 16.3501 13.765 16.5501 13.945C16.7501 14.125 16.8501 14.345 16.8501 14.605C16.8501 14.865 16.7501 15.085 16.5501 15.265C16.3501 15.445 16.1301 15.535 15.8901 15.535C15.6501 15.535 15.4301 15.445 15.2301 15.265C15.0301 15.085 14.9301 14.865 14.9301 14.605C14.9301 14.345 15.0301 14.125 15.2301 13.945C15.4301 13.765 15.6501 13.675 15.8901 13.675ZM3.3501 5.57505V13.075C3.3501 13.235 3.4001 13.375 3.5001 13.495C3.6001 13.615 3.7301 13.675 3.8901 13.675C4.0501 13.675 4.1801 13.615 4.2801 13.495C4.3801 13.375 4.4301 13.255 4.4301 13.135V5.57505C4.4301 5.45505 4.3801 5.33505 4.2801 5.21505C4.1801 5.09505 4.0501 5.03505 3.8901 5.03505C3.7301 5.03505 3.6001 5.09505 3.5001 5.21505C3.4001 5.33505 3.3501 5.45505 3.3501 5.57505ZM9.3501 5.57505V13.075C9.3501 13.235 9.4001 13.375 9.5001 13.495C9.6001 13.615 9.7301 13.675 9.8901 13.675C10.0501 13.675 10.1801 13.615 10.2801 13.495C10.3801 13.375 10.4301 13.255 10.4301 13.135V5.57505C10.4301 5.45505 10.3801 5.33505 10.2801 5.21505C10.1801 5.09505 10.0501 5.03505 9.8901 5.03505C9.7301 5.03505 9.6001 5.09505 9.5001 5.21505C9.4001 5.33505 9.3501 5.45505 9.3501 5.57505ZM15.3501 5.57505V8.57505C15.3501 8.65505 15.3301 8.71505 15.2901 8.75505C15.2501 8.79505 15.2101 8.81505 15.1701 8.81505H3.8901C3.7301 8.81505 3.6001 8.86505 3.5001 8.96505C3.4001 9.06505 3.3501 9.19505 3.3501 9.35505C3.3501 9.51505 3.4001 9.64505 3.5001 9.74505C3.6001 9.84505 3.7301 9.89505 3.8901 9.89505H15.1701C15.5301 9.89505 15.8301 9.77505 16.0701 9.53505C16.3101 9.29505 16.4301 8.97505 16.4301 8.57505V5.63505C16.4301 5.47505 16.3801 5.33505 16.2801 5.21505C16.1801 5.09505 16.0501 5.03505 15.8901 5.03505C15.7301 5.03505 15.6001 5.09505 15.5001 5.21505C15.4001 5.33505 15.3501 5.45505 15.3501 5.57505Z" fill="#050B20"/>
</svg>
