<svg width="61" height="61" viewBox="0 0 61 61" fill="none" xmlns="http://www.w3.org/2000/svg">
<g clip-path="url(#clip0_5_492)">
<path d="M30.5 3.03613V7.72363" stroke="white" stroke-width="3" stroke-miterlimit="10" stroke-linecap="round" stroke-linejoin="round"/>
<path d="M49.25 3.03613L44.5625 7.72363" stroke="white" stroke-width="3" stroke-miterlimit="10" stroke-linecap="round" stroke-linejoin="round"/>
<path d="M15.9738 37.3531C14.8072 36.098 14.0938 34.416 14.0938 32.5674C14.0938 31.4388 14.3596 30.3723 14.8323 29.4271L19.5198 20.0521C20.6732 17.7453 23.0579 16.1611 25.8125 16.1611H18.7812C16.0266 16.1611 13.642 17.7453 12.4885 20.0521L7.80102 29.4271C7.3284 30.3723 7.0625 31.4388 7.0625 32.5674C7.0625 34.416 7.77594 36.098 8.94254 37.3531L27.0658 56.8516C27.9218 57.7725 29.1436 58.3486 30.5 58.3486C31.8564 58.3486 33.0782 57.7725 33.9342 56.8517L34.0156 56.764L15.9738 37.3531Z" fill="white" fill-opacity="0.1"/>
<path d="M48.5115 20.0521L53.199 29.4271C53.6716 30.3722 53.9375 31.4388 53.9375 32.5674C53.9375 34.416 53.2241 36.0981 52.0575 37.3532L33.9342 56.8517C33.0782 57.7725 31.8564 58.3486 30.5 58.3486C29.1436 58.3486 27.9218 57.7725 27.0658 56.8517L8.94254 37.3532C7.77594 36.0981 7.0625 34.416 7.0625 32.5674C7.0625 31.4388 7.3284 30.3722 7.80102 29.4271L12.4885 20.0521C13.642 17.7452 16.0266 16.1611 18.7812 16.1611H42.2188C44.9734 16.1611 47.358 17.7452 48.5115 20.0521Z" stroke="white" stroke-width="3" stroke-miterlimit="10" stroke-linecap="round" stroke-linejoin="round"/>
<path d="M11.75 3.03613L16.4375 7.72363" stroke="white" stroke-width="3" stroke-miterlimit="10" stroke-linecap="round" stroke-linejoin="round"/>
<path d="M17.8848 30.2236H43.115" stroke="#FF0000" stroke-width="3" stroke-miterlimit="10" stroke-linecap="round" stroke-linejoin="round"/>
<path d="M25.8125 25.5361L30.5 30.2236L35.1875 25.5361" stroke="#FF0000" stroke-width="3" stroke-miterlimit="10" stroke-linecap="round" stroke-linejoin="round"/>
<path d="M30.5 44.2862V30.4231" stroke="#FF0000" stroke-width="3" stroke-miterlimit="10" stroke-linecap="round" stroke-linejoin="round"/>
</g>
<defs>
<clipPath id="clip0_5_492">
<rect width="60" height="61" fill="white" transform="translate(0.5)"/>
</clipPath>
</defs>
</svg>
