<svg width="1386" height="620" viewBox="0 0 1386 620" fill="none" xmlns="http://www.w3.org/2000/svg">
<path d="M865.416 696.5H807.152L810.525 693.407C912.516 599.888 1107.83 420.797 1125.63 261.096C1143.63 99.6159 870.321 77.7617 681.415 75.3019C492.509 72.8421 54.0246 146.996 -155.416 182.466C164.64 95.8337 794.846 -84.4411 1196.6 47.6342C1501.68 158.457 1369.12 438.289 1266.6 567.328L1354.89 697.782H1101.14C1226.82 562.081 1338.72 412.481 1340.07 268.836C1341.43 125.19 1156.29 46.5736 890.826 46.2233C996.902 58.8891 1180.56 115.357 1171.09 260.178C1161.63 404.998 960.616 620.657 865.416 696.5Z" fill="#D9D9D9" fill-opacity="0.1"/>
</svg>
